<svg width="15" height="15" viewBox="0 0 15 15" fill="none" xmlns="http://www.w3.org/2000/svg">
<path d="M10.3 0H3.9C1.8 0 0 1.8 0 3.9V10.3C0 12.5 1.8 14.2 3.9 14.2H10.3C12.5 14.2 14.2 12.4 14.2 10.3V3.9C14.2 1.8 12.5 0 10.3 0ZM13 10.3C13 11.8 11.8 13 10.3 13H3.9C2.4 13 1.2 11.8 1.2 10.3V3.9C1.2 2.4 2.4 1.2 3.9 1.2H10.3C11.8 1.2 13 2.4 13 3.9V10.3Z" fill="#121212"/>
<path d="M7.10002 3.39999C5.10002 3.39999 3.40002 4.99999 3.40002 7.09999C3.40002 9.09999 5.00002 10.8 7.10002 10.8C9.10002 10.8 10.8 9.19999 10.8 7.09999C10.8 5.09999 9.10002 3.39999 7.10002 3.39999ZM7.10002 9.49999C5.80002 9.49999 4.70002 8.39999 4.70002 7.09999C4.70002 5.79999 5.80002 4.69999 7.10002 4.69999C8.40002 4.69999 9.50002 5.79999 9.50002 7.09999C9.50002 8.39999 8.40002 9.49999 7.10002 9.49999Z" fill="#121212"/>
<path d="M10.9 2.39999C10.7 2.39999 10.4 2.49999 10.2 2.69999C10.1 2.79999 10 3.09999 10 3.29999C10 3.49999 10.1 3.79999 10.3 3.99999C10.5 4.19999 10.7 4.29999 11 4.29999C11.2 4.29999 11.5 4.19999 11.7 3.99999C11.9 3.79999 12 3.59999 12 3.29999C12 3.09999 11.9 2.79999 11.7 2.59999C11.4 2.49999 11.2 2.39999 10.9 2.39999Z" fill="#121212"/>
</svg>
