<svg width="25" height="15" viewBox="0 0 25 15" fill="none" xmlns="http://www.w3.org/2000/svg">
<path d="M24.7 12.8C24.7 12.7 24.6 12.7 24.6 12.6C24.2 11.8 23.3 10.9 22.1 9.7C21.5 9.2 21.2 8.8 21.1 8.6C20.8 8.3 20.8 7.9 20.9 7.6C21 7.4 21.4 6.8 22 5.9C22.4 5.4 22.6 5.1 22.8 4.8C24.3 2.8 24.9 1.5 24.7 1L24.6 0.9C24.5 0.8 24.4 0.8 24.2 0.7C24 0.6 23.7 0.6 23.4 0.7H19.7C19.6 0.7 19.6 0.7 19.4 0.7C19.3 0.7 19.2 0.7 19.2 0.7H19.1H19L18.9 0.8C19.1 1 19 1.1 19 1.2C18.6 2.2 18.1 3.2 17.6 4.1C17.3 4.6 17 5.1 16.7 5.5C16.4 5.9 16.2 6.2 16 6.4C15.8 6.6 15.7 6.7 15.5 6.8C15.4 6.9 15.2 7 15.2 6.9C15.1 6.9 15 6.9 15 6.8C14.9 6.7 14.8 6.6 14.7 6.5C14.6 6.4 14.6 6.2 14.6 6C14.6 5.8 14.6 5.6 14.6 5.5C14.6 5.4 14.6 5.1 14.6 4.9C14.6 4.6 14.6 4.5 14.6 4.4C14.6 4.1 14.6 3.7 14.6 3.3C14.6 2.9 14.6 2.6 14.6 2.4C14.6 2.2 14.6 1.9 14.6 1.7C14.6 1.4 14.6 1.3 14.6 1.1C14.6 1 14.5 0.8 14.5 0.7C14.4 0.6 14.4 0.5 14.2 0.4C14.1 0.3 13.9 0.3 13.8 0.2C13.3 0.1 12.7 0 12 0C10.4 0 9.4 0.1 8.9 0.3C8.7 0.4 8.5 0.5 8.4 0.7C8.2 0.9 8.2 1 8.3 1C8.8 1.1 9.2 1.3 9.4 1.6L9.5 1.8C9.5 1.8 9.6 2 9.7 2.3C9.8 2.6 9.8 2.9 9.8 3.2C9.8 3.8 9.8 4.4 9.8 4.8C9.8 5.2 9.7 5.6 9.7 5.8C9.7 6.1 9.6 6.3 9.5 6.4C9.4 6.7 9.4 6.8 9.3 6.8C9.3 6.8 9.3 6.9 9.2 6.9C9.2 6.9 9 7 8.9 7C8.8 7 8.7 6.9 8.5 6.8C8.3 6.7 8.1 6.5 7.9 6.3C7.8 6.1 7.5 5.8 7.3 5.4C7.1 5 6.8 4.6 6.6 4L6.4 3.7C6.3 3.4 6.1 3.1 5.9 2.6C5.6 2.1 5.4 1.7 5.3 1.3C5.2 1.1 5.1 1 4.9 0.9H4.8C4.8 0.9 4.7 0.8 4.6 0.8C4.5 0.8 4.4 0.7 4.3 0.7H0.8C0.4 0.7 0.2 0.8 0.1 0.9L0 1C0 1 0 1.1 0 1.2C0 1.3 0 1.4 0.1 1.6C0.6 2.8 1.2 4 1.8 5.1C2.4 6.2 2.9 7.1 3.4 7.8C3.8 8.5 4.3 9.1 4.8 9.8C5.3 10.4 5.6 10.8 5.7 11C5.9 11.2 6 11.3 6.1 11.4L6.4 11.7C6.6 11.9 6.9 12.2 7.3 12.4C7.7 12.7 8.1 13 8.6 13.3C9.1 13.6 9.7 13.8 10.3 14C10.9 14.2 11.6 14.2 12.2 14.2H13.7C14 14.2 14.2 14.1 14.4 13.9L14.5 13.8C14.5 13.7 14.6 13.7 14.6 13.6C14.6 13.5 14.6 13.4 14.6 13.2C14.6 12.8 14.6 12.5 14.7 12.2C14.8 11.9 14.8 11.7 14.9 11.5C15 11.3 15.1 11.2 15.2 11.1C15.3 11 15.4 10.9 15.4 10.9H15.5C15.7 10.8 16 10.9 16.2 11.1C16.5 11.3 16.7 11.6 17 11.9C17.2 12.2 17.5 12.5 17.9 12.9C18.2 13.3 18.5 13.5 18.8 13.7L19.1 13.9C19.3 14 19.5 14.1 19.8 14.2C20.1 14.3 20.3 14.3 20.5 14.3L23.8 14.2C24.1 14.2 24.4 14.1 24.6 14C24.8 13.9 24.9 13.8 24.9 13.6C24.9 13.5 24.9 13.3 24.9 13.2C24.8 13 24.8 12.9 24.7 12.8Z" fill="#121212"/>
</svg>
